<svg width="48" height="52" viewBox="0 0 48 52" fill="none" xmlns="http://www.w3.org/2000/svg">
<path d="M24.0011 44.5734C21.0501 47.8363 17.2292 51.0926 12.794 51.622L12.7897 51.6026C8.42661 53.409 0 48.9275 0 40.7963C0 35.4159 6.9883 23.5011 14.3854 8.12685C16.3352 4.13149 18.3527 0 23.9792 0C29.6472 0 31.5774 3.94782 33.9513 8.81399C48 36.5006 48 38.0283 48 40.7963C48.0022 50.3126 36.0803 57.9316 24.0011 44.5734ZM44.7233 40.7963C44.7233 36.5568 30.7795 9.75611 30.6637 9.53355C28.6461 5.39989 27.4329 3.24123 24.023 3.24123C19.99 3.24123 18.9451 6.42196 16.9953 10.238C3.27884 37.2677 3.27884 38.7479 3.27884 40.7963C3.27884 47.2658 11.3295 53.8801 21.8283 42.1101C17.4696 36.5438 15.2575 31.7619 15.2575 27.8962C15.2575 21.9799 19.6555 18.8856 24.0011 18.8856C28.3466 18.8856 32.7447 21.9799 32.7447 27.8962C32.7447 31.7619 30.5347 36.5438 26.1739 42.1101C36.2333 53.3874 44.7233 47.6332 44.7233 40.7963ZM24.0011 22.1268C21.2818 22.1268 18.5364 23.9117 18.5364 27.8962C18.5364 30.8673 20.4228 34.8994 24.0011 39.5819C27.5794 34.8994 29.4658 30.8673 29.4658 27.8962C29.4658 23.9117 26.7203 22.1268 24.0011 22.1268Z" fill="#FE5B5F"/>
</svg>
