<svg width="45" height="30" viewBox="0 0 45 30" fill="none" xmlns="http://www.w3.org/2000/svg">
<path d="M18.5601 13.9209C20.7181 12.6215 21.3971 11.3808 21.3971 8.24683C21.3971 4.06862 18.01 0.681485 13.8317 0.681485C7.20067 0.706043 0.592285 0.681396 0.592285 0.681396V29.0516H17.6144C20.748 29.0516 23.2884 26.5112 23.2884 23.3775V21.4862C23.2884 18.3523 23.4057 15.1029 18.5601 13.9209ZM6.26632 6.35543H12.886C14.4529 6.35543 15.7231 7.62561 15.7231 9.19244C15.7231 10.7593 14.4529 12.0295 12.886 12.0295H6.26632V6.35543ZM14.7774 23.3775H6.26632V17.7035H14.7774C16.3442 17.7035 17.6144 18.9737 17.6144 20.5405C17.6144 22.1073 16.3442 23.3775 14.7774 23.3775Z" fill="#2196F3"/>
<path d="M40.3102 0.681396H27.0708V6.35543H40.3102V0.681396Z" fill="#2196F3"/>
<path d="M38.2298 22.9615C36.3929 25.4719 32.8687 26.018 30.3582 24.1811C29.4355 23.506 28.7401 22.566 28.3645 21.4863H43.9756C44.0507 21.0171 44.0906 20.5429 44.0948 20.0678C43.9616 14.4537 39.3047 10.0093 33.6904 10.1382C28.077 10.0103 23.4212 14.4544 23.2881 20.0678C23.4212 25.6812 28.077 30.1253 33.6904 29.9973C38.1821 30.0581 42.2008 27.2164 43.6408 22.9615H38.2298ZM33.6905 13.9209C36.0881 13.9258 38.2222 15.4415 39.0166 17.7037H28.3646C29.1589 15.4415 31.293 13.9258 33.6905 13.9209Z" fill="#2196F3"/>
</svg>
