<svg width="52" height="52" viewBox="0 0 52 52" fill="none" xmlns="http://www.w3.org/2000/svg">
<path d="M26 0C11.6552 0 0 11.6552 0 26C0 40.3448 11.6552 52 26 52C40.3448 52 52 40.3448 52 26C52 11.6552 40.3448 0 26 0Z" fill="#D75182"/>
<path d="M47.9644 25.731C45.0058 24.8344 41.8678 24.3862 38.6403 24.3862C36.6678 24.3862 34.7851 24.5656 32.9023 24.8345C32.2747 23.4 31.6471 21.9656 31.0195 20.7104C39.8954 16.9448 43.1229 12.1931 43.1229 12.1931C46.0817 15.8689 47.8747 20.6206 47.9644 25.731Z" fill="white"/>
<path d="M25.999 4.03439C31.5576 4.03439 36.6679 6.09642 40.5231 9.59301C37.5645 12.9999 33.4404 15.4206 29.137 17.1241C24.9231 9.32407 20.8887 4.66205 20.8887 4.66205C22.5024 4.30333 24.2059 4.03439 25.999 4.03439Z" fill="white"/>
<path d="M16.4962 6.1861C16.4962 6.1861 20.3514 11.1172 24.4755 18.6481C14.4341 21.5171 4.48242 21.3378 4.48242 21.3378C6.00647 14.7033 10.4892 9.14471 16.4962 6.1861Z" fill="white"/>
<path d="M4.03369 25.9999C4.03369 25.8205 4.03369 25.6413 4.03369 25.4619C13.4475 25.4619 20.7992 24.2067 26.4475 22.4136C26.9855 23.5792 27.6131 24.8343 28.1509 25.9998C20.3509 28.5101 13.8061 33.7998 9.68199 40.7032C6.18539 36.7585 4.03369 31.6482 4.03369 25.9999Z" fill="white"/>
<path d="M25.9989 47.8758C20.9783 47.8758 16.4058 46.1723 12.73 43.393C16.4058 36.8482 22.5024 31.9171 29.7645 29.6758C31.8265 34.7861 33.6197 40.4344 34.4265 46.2619C31.8265 47.3379 28.9575 47.8758 25.9989 47.8758Z" fill="white"/>
<path d="M38.1926 44.1999C37.4754 38.5516 36.0409 33.3516 34.3374 28.5999C35.7719 28.4205 37.1167 28.3309 38.6408 28.3309C41.7788 28.3309 44.827 28.7792 47.696 29.7654C46.5306 35.7723 43.034 40.9723 38.1926 44.1999Z" fill="white"/>
</svg>
