<svg width="40" height="40" viewBox="0 0 40 40" fill="none" xmlns="http://www.w3.org/2000/svg">
<g clip-path="url(#clip0_1_460)">
<path d="M8.86484 24.1725L7.4725 29.3703L2.38352 29.478C0.862656 26.6571 0 23.4297 0 20C0 16.6835 0.806563 13.556 2.23625 10.8022H2.23734L6.76797 11.6328L8.75266 16.1362C8.33727 17.3473 8.11086 18.6473 8.11086 20C8.11102 21.4681 8.37695 22.8748 8.86484 24.1725Z" fill="#FBBB00"/>
<path d="M39.6503 16.2637C39.88 17.4736 39.9998 18.723 39.9998 20C39.9998 21.4319 39.8492 22.8286 39.5624 24.1758C38.5888 28.7605 36.0448 32.7637 32.5207 35.5967L32.5196 35.5956L26.813 35.3044L26.0054 30.2626C28.3438 28.8912 30.1713 26.7451 31.134 24.1758H20.4395V16.2637H31.29H39.6503Z" fill="#518EF8"/>
<path d="M32.52 35.5956L32.5211 35.5967C29.0937 38.3516 24.7398 40 20.0003 40C12.3838 40 5.76184 35.7429 2.38379 29.478L8.86512 24.1726C10.5541 28.6802 14.9025 31.8891 20.0003 31.8891C22.1914 31.8891 24.2443 31.2967 26.0057 30.2627L32.52 35.5956Z" fill="#28B446"/>
<path d="M32.766 4.60437L26.2869 9.90875C24.4638 8.76922 22.3088 8.11094 20.0001 8.11094C14.7869 8.11094 10.3572 11.467 8.75281 16.1362L2.23742 10.8022H2.23633C5.56492 4.38461 12.2704 0 20.0001 0C24.8528 0 29.3023 1.72859 32.766 4.60437Z" fill="#F14336"/>
</g>
<defs>
<clipPath id="clip0_1_460">
<rect width="40" height="40" fill="white"/>
</clipPath>
</defs>
</svg>
