<svg width="42" height="42" viewBox="0 0 42 42" fill="none" xmlns="http://www.w3.org/2000/svg">
<path d="M41.8737 12.3419C41.7715 10.1065 41.4165 8.57996 40.8974 7.24438C40.3703 5.84312 39.5435 4.57388 38.4752 3.52478C37.4264 2.45645 36.1569 1.62941 34.7556 1.10197C33.4197 0.583191 31.8935 0.22847 29.6581 0.126892C27.4186 0.024353 26.7031 0 21 0C15.2969 0 14.5814 0.024353 12.3419 0.126251C10.1065 0.22847 8.58028 0.583511 7.24438 1.10262C5.84312 1.62973 4.57388 2.45645 3.52478 3.52478C2.45645 4.57356 1.62941 5.8428 1.10197 7.24406C0.583191 8.57996 0.22847 10.1065 0.126892 12.3415C0.024353 14.5814 0 15.2966 0 20.9997C0 26.7031 0.024353 27.4186 0.126892 29.6581C0.22879 31.8932 0.583832 33.4197 1.10294 34.7556C1.63005 36.1566 2.45677 37.4261 3.5251 38.4749C4.57388 39.5432 5.84344 40.3699 7.24471 40.8971C8.58028 41.4165 10.1068 41.7712 12.3422 41.8734C14.582 41.9756 15.2972 41.9997 21.0003 41.9997C26.7034 41.9997 27.4189 41.9756 29.6585 41.8734C31.8938 41.7712 33.42 41.4165 34.7559 40.8971C37.5767 39.8063 39.8066 37.5764 40.8974 34.7556C41.4168 33.4197 41.7715 31.8932 41.8737 29.6581C41.9756 27.4183 42 26.7031 42 21C42 15.2966 41.9756 14.5814 41.8737 12.3419ZM38.0936 29.4861C38.0003 31.5336 37.6581 32.6456 37.3707 33.3854C36.6641 35.217 35.2167 36.6644 33.3851 37.371C32.6452 37.6584 31.5333 38.0007 29.4857 38.0939C27.2719 38.1952 26.6076 38.2163 21 38.2163C15.3921 38.2163 14.7281 38.1952 12.5139 38.0939C10.4667 38.0007 9.35477 37.6584 8.61456 37.371C7.70261 37.0342 6.87749 36.4975 6.20009 35.7999C5.5025 35.1225 4.96577 34.2977 4.629 33.3854C4.34157 32.6456 3.99934 31.5336 3.9061 29.4861C3.80516 27.2719 3.78369 26.6076 3.78369 21.0003C3.78369 15.3927 3.80516 14.7288 3.9061 12.5143C3.99966 10.4667 4.34157 9.35477 4.629 8.61488C4.96577 7.70261 5.50282 6.87749 6.20009 6.20009C6.87749 5.5025 7.70261 4.96577 8.61488 4.62932C9.35477 4.34157 10.4667 3.99966 12.5143 3.9061C14.7285 3.80516 15.3927 3.78369 21 3.78369H20.9997C26.607 3.78369 27.2712 3.80516 29.4857 3.90642C31.5333 3.99966 32.6449 4.34189 33.3851 4.62932C34.2971 4.96609 35.1222 5.50282 35.7996 6.20009C36.4972 6.87749 37.0339 7.70261 37.3704 8.61488C37.6581 9.35477 38.0003 10.4667 38.0936 12.5143C38.1945 14.7285 38.216 15.3927 38.216 21C38.216 26.6076 38.1948 27.2715 38.0936 29.4861Z" fill="url(#paint0_linear_1_479)"/>
<path d="M20.9999 10.2161C15.0443 10.2161 10.2163 15.0444 10.2163 21C10.2163 26.9556 15.0443 31.7836 20.9999 31.7836C26.9558 31.7836 31.7838 26.9556 31.7838 21C31.7838 15.0444 26.9558 10.2161 20.9999 10.2161ZM20.9999 27.9999C17.1342 27.9996 14 24.8657 14.0003 20.9997C14.0003 17.1339 17.1342 13.9998 21.0002 13.9998C24.8663 14.0001 28.0001 17.1339 28.0001 20.9997C28.0001 24.8657 24.8659 27.9999 20.9999 27.9999Z" fill="url(#paint1_linear_1_479)"/>
<path d="M34.7296 9.79024C34.7296 11.1819 33.6013 12.3101 32.2097 12.3101C30.8177 12.3101 29.6895 11.1819 29.6895 9.79024C29.6895 8.39827 30.8177 7.27002 32.2097 7.27002C33.6013 7.27002 34.7296 8.39827 34.7296 9.79024Z" fill="url(#paint2_linear_1_479)"/>
<defs>
<linearGradient id="paint0_linear_1_479" x1="3.52457" y1="38.4751" x2="38.4754" y2="3.52423" gradientUnits="userSpaceOnUse">
<stop stop-color="#FFD600"/>
<stop offset="0.5" stop-color="#FF0100"/>
<stop offset="1" stop-color="#D800B9"/>
</linearGradient>
<linearGradient id="paint1_linear_1_479" x1="13.3748" y1="28.6251" x2="28.6253" y2="13.3746" gradientUnits="userSpaceOnUse">
<stop stop-color="#FF6400"/>
<stop offset="0.5" stop-color="#FF0100"/>
<stop offset="1" stop-color="#FD0056"/>
</linearGradient>
<linearGradient id="paint2_linear_1_479" x1="30.4277" y1="11.572" x2="33.9914" y2="8.00822" gradientUnits="userSpaceOnUse">
<stop stop-color="#F30072"/>
<stop offset="1" stop-color="#E50097"/>
</linearGradient>
</defs>
</svg>
