<svg width="161" height="49" viewBox="0 0 161 49" fill="none" xmlns="http://www.w3.org/2000/svg">
<path d="M15.3203 17.7578H28.9141V35.5234C26.7109 36.2422 24.6328 36.7422 22.6797 37.0234C20.7422 37.3203 18.7578 37.4688 16.7266 37.4688C11.5547 37.4688 7.60156 35.9531 4.86719 32.9219C2.14844 29.875 0.789062 25.5078 0.789062 19.8203C0.789062 14.2891 2.36719 9.97656 5.52344 6.88281C8.69531 3.78906 13.0859 2.24219 18.6953 2.24219C22.2109 2.24219 25.6016 2.94531 28.8672 4.35156L26.4531 10.1641C23.9531 8.91406 21.3516 8.28906 18.6484 8.28906C15.5078 8.28906 12.9922 9.34375 11.1016 11.4531C9.21094 13.5625 8.26562 16.3984 8.26562 19.9609C8.26562 23.6797 9.02344 26.5234 10.5391 28.4922C12.0703 30.4453 14.2891 31.4219 17.1953 31.4219C18.7109 31.4219 20.25 31.2656 21.8125 30.9531V23.8047H15.3203V17.7578ZM42.2266 23.8516C42.2266 26.4453 42.6484 28.4062 43.4922 29.7344C44.3516 31.0625 45.7422 31.7266 47.6641 31.7266C49.5703 31.7266 50.9375 31.0703 51.7656 29.7578C52.6094 28.4297 53.0312 26.4609 53.0312 23.8516C53.0312 21.2578 52.6094 19.3125 51.7656 18.0156C50.9219 16.7188 49.5391 16.0703 47.6172 16.0703C45.7109 16.0703 44.3359 16.7188 43.4922 18.0156C42.6484 19.2969 42.2266 21.2422 42.2266 23.8516ZM60.3438 23.8516C60.3438 28.1172 59.2188 31.4531 56.9688 33.8594C54.7188 36.2656 51.5859 37.4688 47.5703 37.4688C45.0547 37.4688 42.8359 36.9219 40.9141 35.8281C38.9922 34.7188 37.5156 33.1328 36.4844 31.0703C35.4531 29.0078 34.9375 26.6016 34.9375 23.8516C34.9375 19.5703 36.0547 16.2422 38.2891 13.8672C40.5234 11.4922 43.6641 10.3047 47.7109 10.3047C50.2266 10.3047 52.4453 10.8516 54.3672 11.9453C56.2891 13.0391 57.7656 14.6094 58.7969 16.6562C59.8281 18.7031 60.3438 21.1016 60.3438 23.8516ZM71.9453 23.8516C71.9453 26.4453 72.3672 28.4062 73.2109 29.7344C74.0703 31.0625 75.4609 31.7266 77.3828 31.7266C79.2891 31.7266 80.6562 31.0703 81.4844 29.7578C82.3281 28.4297 82.75 26.4609 82.75 23.8516C82.75 21.2578 82.3281 19.3125 81.4844 18.0156C80.6406 16.7188 79.2578 16.0703 77.3359 16.0703C75.4297 16.0703 74.0547 16.7188 73.2109 18.0156C72.3672 19.2969 71.9453 21.2422 71.9453 23.8516ZM90.0625 23.8516C90.0625 28.1172 88.9375 31.4531 86.6875 33.8594C84.4375 36.2656 81.3047 37.4688 77.2891 37.4688C74.7734 37.4688 72.5547 36.9219 70.6328 35.8281C68.7109 34.7188 67.2344 33.1328 66.2031 31.0703C65.1719 29.0078 64.6562 26.6016 64.6562 23.8516C64.6562 19.5703 65.7734 16.2422 68.0078 13.8672C70.2422 11.4922 73.3828 10.3047 77.4297 10.3047C79.9453 10.3047 82.1641 10.8516 84.0859 11.9453C86.0078 13.0391 87.4844 14.6094 88.5156 16.6562C89.5469 18.7031 90.0625 21.1016 90.0625 23.8516ZM118.773 10.7969V14.4297L114.672 15.4844C115.422 16.6562 115.797 17.9688 115.797 19.4219C115.797 22.2344 114.812 24.4297 112.844 26.0078C110.891 27.5703 108.172 28.3516 104.688 28.3516L103.398 28.2812L102.344 28.1641C101.609 28.7266 101.242 29.3516 101.242 30.0391C101.242 31.0703 102.555 31.5859 105.18 31.5859H109.633C112.508 31.5859 114.695 32.2031 116.195 33.4375C117.711 34.6719 118.469 36.4844 118.469 38.875C118.469 41.9375 117.188 44.3125 114.625 46C112.078 47.6875 108.414 48.5312 103.633 48.5312C99.9766 48.5312 97.1797 47.8906 95.2422 46.6094C93.3203 45.3438 92.3594 43.5625 92.3594 41.2656C92.3594 39.6875 92.8516 38.3672 93.8359 37.3047C94.8203 36.2422 96.2656 35.4844 98.1719 35.0312C97.4375 34.7188 96.7969 34.2109 96.25 33.5078C95.7031 32.7891 95.4297 32.0312 95.4297 31.2344C95.4297 30.2344 95.7188 29.4062 96.2969 28.75C96.875 28.0781 97.7109 27.4219 98.8047 26.7812C97.4297 26.1875 96.3359 25.2344 95.5234 23.9219C94.7266 22.6094 94.3281 21.0625 94.3281 19.2812C94.3281 16.4219 95.2578 14.2109 97.1172 12.6484C98.9766 11.0859 101.633 10.3047 105.086 10.3047C105.82 10.3047 106.688 10.375 107.688 10.5156C108.703 10.6406 109.352 10.7344 109.633 10.7969H118.773ZM98.5469 40.7031C98.5469 41.6875 99.0156 42.4609 99.9531 43.0234C100.906 43.5859 102.234 43.8672 103.938 43.8672C106.5 43.8672 108.508 43.5156 109.961 42.8125C111.414 42.1094 112.141 41.1484 112.141 39.9297C112.141 38.9453 111.711 38.2656 110.852 37.8906C109.992 37.5156 108.664 37.3281 106.867 37.3281H103.164C101.852 37.3281 100.75 37.6328 99.8594 38.2422C98.9844 38.8672 98.5469 39.6875 98.5469 40.7031ZM101.148 19.375C101.148 20.7969 101.469 21.9219 102.109 22.75C102.766 23.5781 103.758 23.9922 105.086 23.9922C106.43 23.9922 107.414 23.5781 108.039 22.75C108.664 21.9219 108.977 20.7969 108.977 19.375C108.977 16.2188 107.68 14.6406 105.086 14.6406C102.461 14.6406 101.148 16.2188 101.148 19.375ZM130.258 37H123.109V0.53125H130.258V37ZM148.633 15.3906C147.117 15.3906 145.93 15.875 145.07 16.8438C144.211 17.7969 143.719 19.1562 143.594 20.9219H153.625C153.594 19.1562 153.133 17.7969 152.242 16.8438C151.352 15.875 150.148 15.3906 148.633 15.3906ZM149.641 37.4688C145.422 37.4688 142.125 36.3047 139.75 33.9766C137.375 31.6484 136.188 28.3516 136.188 24.0859C136.188 19.6953 137.281 16.3047 139.469 13.9141C141.672 11.5078 144.711 10.3047 148.586 10.3047C152.289 10.3047 155.172 11.3594 157.234 13.4688C159.297 15.5781 160.328 18.4922 160.328 22.2109V25.6797H143.43C143.508 27.7109 144.109 29.2969 145.234 30.4375C146.359 31.5781 147.938 32.1484 149.969 32.1484C151.547 32.1484 153.039 31.9844 154.445 31.6562C155.852 31.3281 157.32 30.8047 158.852 30.0859V35.6172C157.602 36.2422 156.266 36.7031 154.844 37C153.422 37.3125 151.688 37.4688 149.641 37.4688Z" fill="#D7D7DD"/>
</svg>
