<svg width="111" height="36" viewBox="0 0 111 36" fill="none" xmlns="http://www.w3.org/2000/svg">
<path d="M28.3906 35H21.1484V20.2109H7.57812V35H0.3125V0.734375H7.57812V14.1641H21.1484V0.734375H28.3906V35ZM47.3516 13.3906C45.8359 13.3906 44.6484 13.875 43.7891 14.8438C42.9297 15.7969 42.4375 17.1562 42.3125 18.9219H52.3438C52.3125 17.1562 51.8516 15.7969 50.9609 14.8438C50.0703 13.875 48.8672 13.3906 47.3516 13.3906ZM48.3594 35.4688C44.1406 35.4688 40.8438 34.3047 38.4688 31.9766C36.0938 29.6484 34.9062 26.3516 34.9062 22.0859C34.9062 17.6953 36 14.3047 38.1875 11.9141C40.3906 9.50781 43.4297 8.30469 47.3047 8.30469C51.0078 8.30469 53.8906 9.35938 55.9531 11.4688C58.0156 13.5781 59.0469 16.4922 59.0469 20.2109V23.6797H42.1484C42.2266 25.7109 42.8281 27.2969 43.9531 28.4375C45.0781 29.5781 46.6562 30.1484 48.6875 30.1484C50.2656 30.1484 51.7578 29.9844 53.1641 29.6562C54.5703 29.3281 56.0391 28.8047 57.5703 28.0859V33.6172C56.3203 34.2422 54.9844 34.7031 53.5625 35C52.1406 35.3125 50.4062 35.4688 48.3594 35.4688ZM79.4844 8.30469C80.4531 8.30469 81.2578 8.375 81.8984 8.51562L81.3594 15.2188C80.7812 15.0625 80.0781 14.9844 79.25 14.9844C76.9688 14.9844 75.1875 15.5703 73.9062 16.7422C72.6406 17.9141 72.0078 19.5547 72.0078 21.6641V35H64.8594V8.79688H70.2734L71.3281 13.2031H71.6797C72.4922 11.7344 73.5859 10.5547 74.9609 9.66406C76.3516 8.75781 77.8594 8.30469 79.4844 8.30469ZM92.3516 21.8516C92.3516 24.4453 92.7734 26.4062 93.6172 27.7344C94.4766 29.0625 95.8672 29.7266 97.7891 29.7266C99.6953 29.7266 101.062 29.0703 101.891 27.7578C102.734 26.4297 103.156 24.4609 103.156 21.8516C103.156 19.2578 102.734 17.3125 101.891 16.0156C101.047 14.7188 99.6641 14.0703 97.7422 14.0703C95.8359 14.0703 94.4609 14.7188 93.6172 16.0156C92.7734 17.2969 92.3516 19.2422 92.3516 21.8516ZM110.469 21.8516C110.469 26.1172 109.344 29.4531 107.094 31.8594C104.844 34.2656 101.711 35.4688 97.6953 35.4688C95.1797 35.4688 92.9609 34.9219 91.0391 33.8281C89.1172 32.7188 87.6406 31.1328 86.6094 29.0703C85.5781 27.0078 85.0625 24.6016 85.0625 21.8516C85.0625 17.5703 86.1797 14.2422 88.4141 11.8672C90.6484 9.49219 93.7891 8.30469 97.8359 8.30469C100.352 8.30469 102.57 8.85156 104.492 9.94531C106.414 11.0391 107.891 12.6094 108.922 14.6562C109.953 16.7031 110.469 19.1016 110.469 21.8516Z" fill="#D7D7DD"/>
</svg>
