<svg width="267" height="64" viewBox="0 0 267 64" fill="none" xmlns="http://www.w3.org/2000/svg">
<path d="M107.28 19.92V48H100.44V31.16L94.16 48H88.64L82.32 31.12V48H75.48V19.92H83.56L91.44 39.36L99.24 19.92H107.28ZM115.639 23.36C114.439 23.36 113.452 23.0133 112.679 22.32C111.932 21.6 111.559 20.72 111.559 19.68C111.559 18.6133 111.932 17.7333 112.679 17.04C113.452 16.32 114.439 15.96 115.639 15.96C116.812 15.96 117.772 16.32 118.519 17.04C119.292 17.7333 119.679 18.6133 119.679 19.68C119.679 20.72 119.292 21.6 118.519 22.32C117.772 23.0133 116.812 23.36 115.639 23.36ZM119.039 25.68V48H112.199V25.68H119.039ZM122.636 36.84C122.636 34.52 123.102 32.4933 124.036 30.76C124.996 29.0267 126.316 27.6933 127.996 26.76C129.702 25.8267 131.649 25.36 133.836 25.36C136.636 25.36 138.969 26.0933 140.836 27.56C142.729 29.0267 143.969 31.0933 144.556 33.76H137.276C136.662 32.0533 135.476 31.2 133.716 31.2C132.462 31.2 131.462 31.6933 130.716 32.68C129.969 33.64 129.596 35.0267 129.596 36.84C129.596 38.6533 129.969 40.0533 130.716 41.04C131.462 42 132.462 42.48 133.716 42.48C135.476 42.48 136.662 41.6267 137.276 39.92H144.556C143.969 42.5333 142.729 44.5867 140.836 46.08C138.942 47.5733 136.609 48.32 133.836 48.32C131.649 48.32 129.702 47.8533 127.996 46.92C126.316 45.9867 124.996 44.6533 124.036 42.92C123.102 41.1867 122.636 39.16 122.636 36.84ZM155.054 29.4C155.854 28.1733 156.854 27.2133 158.054 26.52C159.254 25.8 160.588 25.44 162.054 25.44V32.68H160.174C158.468 32.68 157.188 33.0533 156.334 33.8C155.481 34.52 155.054 35.8 155.054 37.64V48H148.214V25.68H155.054V29.4ZM175.484 48.32C173.297 48.32 171.324 47.8533 169.564 46.92C167.83 45.9867 166.457 44.6533 165.444 42.92C164.457 41.1867 163.964 39.16 163.964 36.84C163.964 34.5467 164.47 32.5333 165.484 30.8C166.497 29.04 167.884 27.6933 169.644 26.76C171.404 25.8267 173.377 25.36 175.564 25.36C177.75 25.36 179.724 25.8267 181.484 26.76C183.244 27.6933 184.63 29.04 185.644 30.8C186.657 32.5333 187.164 34.5467 187.164 36.84C187.164 39.1333 186.644 41.16 185.604 42.92C184.59 44.6533 183.19 45.9867 181.404 46.92C179.644 47.8533 177.67 48.32 175.484 48.32ZM175.484 42.4C176.79 42.4 177.897 41.92 178.804 40.96C179.737 40 180.204 38.6267 180.204 36.84C180.204 35.0533 179.75 33.68 178.844 32.72C177.964 31.76 176.87 31.28 175.564 31.28C174.23 31.28 173.124 31.76 172.244 32.72C171.364 33.6533 170.924 35.0267 170.924 36.84C170.924 38.6267 171.35 40 172.204 40.96C173.084 41.92 174.177 42.4 175.484 42.4ZM199.873 48.32C197.926 48.32 196.193 47.9867 194.673 47.32C193.153 46.6533 191.953 45.7467 191.073 44.6C190.193 43.4267 189.699 42.12 189.593 40.68H196.353C196.433 41.4533 196.793 42.08 197.433 42.56C198.073 43.04 198.859 43.28 199.793 43.28C200.646 43.28 201.299 43.12 201.753 42.8C202.233 42.4533 202.473 42.0133 202.473 41.48C202.473 40.84 202.139 40.3733 201.473 40.08C200.806 39.76 199.726 39.4133 198.233 39.04C196.633 38.6667 195.299 38.28 194.233 37.88C193.166 37.4533 192.246 36.8 191.473 35.92C190.699 35.0133 190.313 33.8 190.313 32.28C190.313 31 190.659 29.84 191.353 28.8C192.073 27.7333 193.113 26.8933 194.473 26.28C195.859 25.6667 197.499 25.36 199.393 25.36C202.193 25.36 204.393 26.0533 205.993 27.44C207.619 28.8267 208.553 30.6667 208.793 32.96H202.473C202.366 32.1867 202.019 31.5733 201.433 31.12C200.873 30.6667 200.126 30.44 199.193 30.44C198.393 30.44 197.779 30.6 197.353 30.92C196.926 31.2133 196.713 31.6267 196.713 32.16C196.713 32.8 197.046 33.28 197.713 33.6C198.406 33.92 199.473 34.24 200.913 34.56C202.566 34.9867 203.913 35.4133 204.953 35.84C205.993 36.24 206.899 36.9067 207.673 37.84C208.473 38.7467 208.886 39.9733 208.913 41.52C208.913 42.8267 208.539 44 207.793 45.04C207.073 46.0533 206.019 46.8533 204.633 47.44C203.273 48.0267 201.686 48.32 199.873 48.32ZM223.257 48.32C221.071 48.32 219.097 47.8533 217.337 46.92C215.604 45.9867 214.231 44.6533 213.217 42.92C212.231 41.1867 211.737 39.16 211.737 36.84C211.737 34.5467 212.244 32.5333 213.257 30.8C214.271 29.04 215.657 27.6933 217.417 26.76C219.177 25.8267 221.151 25.36 223.337 25.36C225.524 25.36 227.497 25.8267 229.257 26.76C231.017 27.6933 232.404 29.04 233.417 30.8C234.431 32.5333 234.937 34.5467 234.937 36.84C234.937 39.1333 234.417 41.16 233.377 42.92C232.364 44.6533 230.964 45.9867 229.177 46.92C227.417 47.8533 225.444 48.32 223.257 48.32ZM223.257 42.4C224.564 42.4 225.671 41.92 226.577 40.96C227.511 40 227.977 38.6267 227.977 36.84C227.977 35.0533 227.524 33.68 226.617 32.72C225.737 31.76 224.644 31.28 223.337 31.28C222.004 31.28 220.897 31.76 220.017 32.72C219.137 33.6533 218.697 35.0267 218.697 36.84C218.697 38.6267 219.124 40 219.977 40.96C220.857 41.92 221.951 42.4 223.257 42.4ZM249.766 31.36H246.086V48H239.246V31.36H236.766V25.68H239.246V25.04C239.246 22.2933 240.033 20.2133 241.606 18.8C243.179 17.36 245.486 16.64 248.526 16.64C249.033 16.64 249.406 16.6533 249.646 16.68V22.48C248.339 22.4 247.419 22.5867 246.886 23.04C246.353 23.4933 246.086 24.3067 246.086 25.48V25.68H249.766V31.36ZM265.42 42.2V48H261.94C259.46 48 257.527 47.4 256.14 46.2C254.753 44.9733 254.06 42.9867 254.06 40.24V31.36H251.34V25.68H254.06V20.24H260.9V25.68H265.38V31.36H260.9V40.32C260.9 40.9867 261.06 41.4667 261.38 41.76C261.7 42.0533 262.233 42.2 262.98 42.2H265.42Z" fill="#D7D7DD"/>
<path d="M30.8125 27.1875H58V1.8125C58 0.812 57.188 0 56.1875 0H30.8125V27.1875Z" fill="#D7D7DD"/>
<path d="M27.1875 27.1875V0H1.8125C0.812 0 0 0.812 0 1.8125V27.1875H27.1875Z" fill="#D7D7DD"/>
<path d="M27.1875 30.8125H0V56.1875C0 57.188 0.812 58 1.8125 58H27.1875V30.8125Z" fill="#D7D7DD"/>
<path d="M30.8125 30.8125V58H56.1875C57.188 58 58 57.188 58 56.1875V30.8125H30.8125Z" fill="#D7D7DD"/>
</svg>
