<svg width="218" height="81" viewBox="0 0 218 81" fill="none" xmlns="http://www.w3.org/2000/svg">
<rect x="2.5" y="2.5" width="75.9141" height="75.9141" stroke="#D7D7DD" stroke-width="5"/>
<path d="M46.2031 28.1914V50.3633C46.2031 52.8945 45.6328 55.1133 44.4922 57.0195C43.3672 58.9258 41.7344 60.3867 39.5938 61.4023C37.4531 62.418 34.9219 62.9258 32 62.9258C27.5938 62.9258 24.1719 61.8008 21.7344 59.5508C19.2969 57.2852 18.0781 54.1914 18.0781 50.2695V28.1914H25.3203V49.168C25.3203 51.8086 25.8516 53.7461 26.9141 54.9805C27.9766 56.2148 29.7344 56.832 32.1875 56.832C34.5625 56.832 36.2812 56.2148 37.3438 54.9805C38.4219 53.7305 38.9609 51.7773 38.9609 49.1211V28.1914H46.2031ZM54.5938 62.457V28.1914H61.8594V62.457H54.5938Z" fill="#D7D7DD"/>
<path d="M105.578 44.3164H107.969C110.203 44.3164 111.875 43.8789 112.984 43.0039C114.094 42.1133 114.648 40.8242 114.648 39.1367C114.648 37.4336 114.18 36.1758 113.242 35.3633C112.32 34.5508 110.867 34.1445 108.883 34.1445H105.578V44.3164ZM121.984 38.8789C121.984 42.5664 120.828 45.3867 118.516 47.3398C116.219 49.293 112.945 50.2695 108.695 50.2695H105.578V62.457H98.3125V28.1914H109.258C113.414 28.1914 116.57 29.0898 118.727 30.8867C120.898 32.668 121.984 35.332 121.984 38.8789ZM144.531 62.457L143.148 58.8945H142.961C141.758 60.4102 140.516 61.4648 139.234 62.0586C137.969 62.6367 136.312 62.9258 134.266 62.9258C131.75 62.9258 129.766 62.207 128.312 60.7695C126.875 59.332 126.156 57.2852 126.156 54.6289C126.156 51.8477 127.125 49.8008 129.062 48.4883C131.016 47.1602 133.953 46.4258 137.875 46.2852L142.422 46.1445V44.9961C142.422 42.3398 141.062 41.0117 138.344 41.0117C136.25 41.0117 133.789 41.6445 130.961 42.9102L128.594 38.082C131.609 36.5039 134.953 35.7148 138.625 35.7148C142.141 35.7148 144.836 36.4805 146.711 38.0117C148.586 39.543 149.523 41.8711 149.523 44.9961V62.457H144.531ZM142.422 50.3164L139.656 50.4102C137.578 50.4727 136.031 50.8477 135.016 51.5352C134 52.2227 133.492 53.2695 133.492 54.6758C133.492 56.6914 134.648 57.6992 136.961 57.6992C138.617 57.6992 139.938 57.2227 140.922 56.2695C141.922 55.3164 142.422 54.0508 142.422 52.4727V50.3164ZM167.945 57.2305C169.195 57.2305 170.695 56.957 172.445 56.4102V61.7305C170.664 62.5273 168.477 62.9258 165.883 62.9258C163.023 62.9258 160.938 62.207 159.625 60.7695C158.328 59.3164 157.68 57.1445 157.68 54.2539V41.6211H154.258V38.5977L158.195 36.207L160.258 30.6758H164.828V36.2539H172.164V41.6211H164.828V54.2539C164.828 55.2695 165.109 56.0195 165.672 56.5039C166.25 56.9883 167.008 57.2305 167.945 57.2305ZM201.953 62.457H194.805V47.1523C194.805 43.3711 193.398 41.4805 190.586 41.4805C188.586 41.4805 187.141 42.1602 186.25 43.5195C185.359 44.8789 184.914 47.082 184.914 50.1289V62.457H177.766V25.9883H184.914V33.418C184.914 33.9961 184.859 35.3555 184.75 37.4961L184.586 39.6055H184.961C186.555 37.043 189.086 35.7617 192.555 35.7617C195.633 35.7617 197.969 36.5898 199.562 38.2461C201.156 39.9023 201.953 42.2773 201.953 45.3711V62.457Z" fill="#D7D7DD"/>
</svg>
